<?xml version="1.0" standalone="no"?>
<!-- Generator: Paintmaps.com , Online SVG vector map maker -->
<svg xmlns="http://www.w3.org/2000/svg" version="1.1" baseProfile="full" width="800" height="533" style="background-color:#e0f2f1">
<rect width="100%" height="100%" fill="#e0f2f1"/>
<path d="M 354.194 353.2351 L 356.2223 358.5795 L 355.9326 359.6098 L 357.7194 361.8635 L 359.3131 366.3709 L 343.4728 359.7386 L 326.7633 354.0721 L 293.6339 337.4592 L 296.3383 336.944 L 298.8013 334.5615 L 303.5823 327.7361 L 304.6931 324.5165 L 307.0112 322.3916 L 312.6132 308.805 L 314.3035 302.6234 L 318.8431 299.0175 L 321.9339 301.9151 L 325.2662 301.8507 L 326.8115 294.4457 L 327.5842 284.2718 L 327.0047 278.9917 L 320.63 266.5642 L 319.2778 262.3788 L 309.8605 253.6215 L 307.4941 248.8566 L 302.8579 245.4438 L 301.8921 243.3833 L 302.375 242.1598 L 304.5965 241.3872 L 306.818 238.4895 L 308.0736 233.9821 L 307.8322 229.2172 L 309.7639 225.4181 L 313.1928 222.5849 L 314.7864 223.2932 L 315.0279 222.0053 L 317.008 220.7175 L 317.7324 217.0472 L 319.4226 217.8199 L 318.6982 219.5585 L 319.1812 219.7516 L 322.4651 215.7594 L 324.4452 216.7896 L 325.7008 215.1155 L 327.1496 215.3086 L 327.6325 214.0208 L 328.2604 214.2784 L 330.0472 209.8997 L 332.1721 210.6724 L 333.7658 209.3846 L 334.5868 209.8354 L 333.4761 211.4451 L 335.3595 212.6042 L 335.601 215.3086 L 335.1663 217.9487 L 333.6209 219.6229 L 333.7175 221.4258 L 331.3028 223.6151 L 332.1721 224.7742 L 331.3511 230.5694 L 332.6068 230.4406 L 334.0073 233.6602 L 334.5385 241.3228 L 336.5186 241.3872 L 337.6293 239.2622 L 339.2713 240.3569 L 339.6576 239.1335 L 339.1264 239.1978 L 338.8366 237.0729 L 341.203 237.0729 L 341.686 235.7851 L 343.0865 237.7812 L 343.4245 233.789 L 345.5012 231.2133 L 347.9158 234.8192 L 348.2056 232.3724 L 346.8534 231.664 L 347.7227 222.9068 L 349.2198 224.259 L 350.0408 222.3917 L 352.1174 223.2288 L 353.2764 222.5849 L 354.7252 223.9371 L 354.5321 222.6492 L 355.5945 221.619 L 355.1599 219.6229 L 356.1257 218.2062 L 358.3472 218.0775 L 358.9268 214.6647 L 361.0517 214.3428 L 362.4039 210.0285 L 362.0176 208.4187 L 363.0317 206.9377 L 363.563 200.4342 L 364.6254 198.8888 L 364.722 207.5173 L 363.4664 215.373 L 364.0942 215.7594 L 363.3215 216.4033 L 363.2732 219.4941 L 361.5346 224.259 L 362.1141 227.6074 L 364.8669 228.2513 L 365.1566 229.0884 L 364.8669 235.9139 L 368.5372 236.3646 L 369.165 235.0124 L 369.3582 236.1714 L 372.449 236.0427 L 373.1734 237.0085 L 373.7529 235.4631 L 376.3125 235.27 L 376.2159 239.391 L 377.0852 239.7774 L 376.9403 238.8759 L 377.8096 240.0349 L 377.6164 239.3266 L 378.7271 238.8759 L 378.534 237.91 L 381.3833 239.1335 L 382.0111 241.4515 L 380.4657 242.0311 L 382.4457 242.0955 L 382.3009 245.2506 L 383.3633 245.4438 L 383.8462 242.675 L 386.0678 243.1901 L 386.2609 240.4857 L 384.957 238.4251 L 385.1019 236.4934 L 388.0478 237.4593 L 386.8405 239.713 L 387.2751 241.0652 L 388.241 241.0652 L 388.579 239.8418 L 389.9795 240.8076 L 390.7522 239.1978 L 390.6073 234.1109 L 389.0137 234.1753 L 389.9312 233.9821 L 390.0278 232.5011 L 388.9654 231.9216 L 389.3517 221.1039 L 387.1302 220.9751 L 387.6131 219.6229 L 386.2609 215.9525 L 386.8405 210.7368 L 387.8546 210.4149 L 388.9654 214.7291 L 389.1102 211.5095 L 389.6898 210.7368 L 391.042 211.1876 L 391.38 209.8354 L 391.5732 211.7671 L 392.4425 212.3466 L 392.8289 210.7368 L 393.7464 212.8618 L 394.4708 208.8051 L 396.1128 208.8051 L 396.2577 210.9944 L 398.5758 211.3164 L 398.286 215.5662 L 399.3485 217.6911 L 398.3826 224.0659 L 398.9138 227.6074 L 398.4792 230.3118 L 399.4934 231.4709 L 398.5758 232.9519 L 400.4109 234.2397 L 401.908 233.5958 L 401.3285 238.1676 L 403.1154 239.1335 L 402.729 243.7052 L 405.192 243.1901 L 404.8057 240.872 L 405.7715 240.0993 L 406.1579 237.7168 L 408.0413 237.2017 L 409.8765 237.9744 L 409.4418 234.948 L 413.6917 235.3987 L 414.2229 232.8231 L 415.3337 233.3382 L 417.362 232.2436 L 417.8932 234.1109 L 418.183 233.1451 L 419.8733 233.7246 L 420.3079 237.3949 L 420.9357 237.5881 L 422.3845 234.2397 L 424.9924 234.8192 L 425.3304 235.9783 L 425.4753 235.0124 L 426.6343 235.5919 L 427.5519 230.827 L 429.5803 231.4709 L 429.0973 233.2094 L 432.8642 234.2397 L 437.4038 233.9177 L 439.0941 234.6904 L 440.1565 233.5314 L 441.1707 233.789 L 441.9917 238.1032 L 443.6337 237.6524 L 443.8752 239.0691 L 446.8694 240.2925 L 446.0967 242.7394 L 444.4547 243.7696 L 435.5687 243.9628 L 433.9267 244.9287 L 431.2705 243.7052 L 430.5944 245.2506 L 428.3246 245.8946 L 423.9299 254.5874 L 423.447 258.9016 L 422.3362 259.3524 L 420.8874 262.5075 L 421.2255 265.0832 L 423.8816 267.9808 L 422.3845 269.0755 L 425.427 276.4161 L 425.2338 277.5107 L 428.6144 276.6093 L 433.0574 278.6698 L 434.2164 278.1547 L 434.9408 279.4425 L 434.6028 281.7606 L 435.7618 284.465 L 434.7477 293.6086 L 432.5745 300.756 L 433.492 304.6839 L 433.0091 308.483 L 432.2847 309.5133 L 431.0774 309.1913 L 431.5603 311.2518 L 430.7876 313.0548 L 428.0349 311.0587 L 425.1855 311.445 L 425.9582 316.3388 L 423.3504 318.5925 L 424.9924 325.4824 L 424.5577 326.899 L 423.3504 327.2853 L 425.6202 329.9254 L 421.7084 328.8951 L 420.7908 329.7966 L 418.9074 328.058 L 419.4386 326.899 L 421.0323 326.8346 L 422.4328 324.3877 L 419.6318 322.1984 L 419.4386 320.975 L 420.7908 319.7515 L 420.4045 318.9788 L 415.9132 321.0393 L 416.0098 325.9975 L 414.7058 327.2853 L 412.7741 323.3574 L 413.0639 319.6871 L 414.8024 317.1759 L 413.3053 314.4714 L 411.9531 314.2782 L 409.3453 316.9827 L 409.8765 321.0393 L 409.297 326.9634 L 405.5301 326.9634 L 404.1778 325.3536 L 402.0046 329.1527 L 398.9138 331.2776 L 394.8572 329.9254 L 392.4908 330.3117 L 389.6415 328.3156 L 386.5507 328.8951 L 386.6473 331.5351 L 387.6614 333.6601 L 386.7439 335.9138 L 379.0652 336.7509 L 372.449 331.2132 L 371.0967 337.7811 L 367.9094 336.2357 L 364.2874 332.3078 L 364.6737 334.0464 L 366.5089 335.9782 L 364.2391 341.1939 L 365.2532 341.8378 L 366.6054 340.4212 L 366.7503 342.868 L 364.722 345.4437 L 359.3131 344.9286 L 356.3189 346.4096 L 355.0633 347.633 L 354.194 353.2351 Z" fill="#000000" fill-opacity="1" stroke="#000000" stroke-width="0" paint-order="fill" stroke-opacity="1" stroke-dasharray="" stroke-linecap="butt" stroke-linejoin="miter" stroke-miterlimit="10" clip-path="none"/>
<path d="M 462.4682 434.6258 L 462.4682 434.497 L 462.5648 434.6258 L 462.4682 434.6258 Z M 474.3001 438.2317 L 474.6382 437.8454 L 474.8313 438.2317 L 474.6864 438.4249 L 474.3001 438.2317 Z M 463.3375 434.8834 L 463.3375 435.0766 L 463.1443 435.0122 L 463.1926 434.819 L 463.3375 434.8834 Z M 519.5512 464.1815 L 519.5512 464.5034 L 519.5029 464.5678 L 519.4063 464.2459 L 519.5512 464.1815 Z M 515.0116 462.5717 L 515.1082 462.7649 L 514.8184 462.7649 L 514.8667 462.5073 L 515.0116 462.5717 Z M 487.2428 443.3187 L 487.0013 443.8338 L 486.9047 443.8338 L 486.953 443.5762 L 487.2428 443.3187 Z M 477.9704 442.0308 L 477.8738 442.224 L 477.6807 442.1596 L 477.7772 442.0308 L 477.9704 442.0308 Z M 591.3154 478.9271 L 591.1705 479.3779 L 590.8325 479.3135 L 590.9774 478.9915 L 591.3154 478.9271 Z M 539.2549 476.4159 L 539.5447 476.6734 L 539.4964 476.8666 L 539.2549 476.7378 L 539.2549 476.4159 Z M 554.7588 474.0999 L 554.8538 474.2265 L 554.8055 474.4197 L 554.6606 474.2909 L 554.7567 474.0987 L 554.7588 474.0999 Z M 554.7567 474.0987 L 551.5698 472.2948 L 548.3824 472.3592 L 545.3882 476.7378 L 544.1326 475.0636 L 543.0218 476.8022 L 540.4623 475.3212 L 537.4681 477.5105 L 536.2125 476.9954 L 536.0193 475.5788 L 536.792 472.5524 L 538.1925 471.7797 L 538.1442 468.5601 L 537.2266 466.564 L 536.1159 466.4996 L 535.15 468.1094 L 533.7978 467.2723 L 532.9768 468.9464 L 532.5904 467.9806 L 528.7752 468.9464 L 527.6645 467.2723 L 525.2981 467.1435 L 524.9601 465.5981 L 523.1249 466.242 L 521.6761 464.6322 L 520.4688 465.2761 L 520.0824 463.7951 L 517.5711 461.9278 L 514.8667 462.1853 L 513.2247 459.6097 L 511.0032 459.9316 L 509.7476 458.9014 L 509.8925 457.9355 L 506.1256 456.8409 L 502.6001 452.7198 L 496.9981 450.4017 L 486.3252 441.902 L 484.152 442.1596 L 482.6549 444.5421 L 482.3651 443.1255 L 481.8339 443.7694 L 477.6324 441.5157 L 476.8597 439.0688 L 474.9279 437.3303 L 467.3458 436.4288 L 462.4199 434.2395 L 461.0194 435.0122 L 460.1984 431.4062 L 459.6671 431.0199 L 459.3774 433.4668 L 458.6047 433.4668 L 458.9427 435.5917 L 453.389 432.1789 L 452.5197 433.1448 L 451.6504 432.4365 L 450.0084 433.0804 L 450.1533 431.6638 L 449.2357 432.3077 L 448.6562 430.8911 L 447.7386 431.4706 L 447.2074 429.5389 L 444.9376 429.0238 L 444.6479 427.414 L 443.682 427.8003 L 443.7303 426.5125 L 442.9093 428.1867 L 438.1765 424.6451 L 435.134 424.2588 L 434.8925 423.4217 L 432.3813 423.7437 L 431.512 421.7475 L 429.9666 421.5544 L 429.6286 420.5885 L 427.6968 420.6529 L 425.3304 419.0431 L 423.3021 419.6226 L 421.6118 417.884 L 421.805 419.4294 L 421.3221 418.6567 L 420.8874 419.4294 L 419.1006 418.2704 L 418.521 416.725 L 412.5809 413.0547 L 408.5726 413.3766 L 407.993 412.0244 L 407.0755 413.1835 L 406.7374 412.3464 L 405.9164 412.8615 L 405.6749 411.6381 L 404.7574 411.8313 L 405.0471 408.6117 L 402.9222 405.8429 L 397.3202 404.1687 L 397.0304 402.8808 L 396.0645 402.6877 L 396.2094 401.5286 L 393.022 400.7559 L 392.5874 399.4037 L 390.1727 399.8544 L 389.2551 398.4378 L 386.937 398.7598 L 382.1077 394.8963 L 376.3125 394.4456 L 373.5114 390.067 L 372.9319 387.6845 L 370.7587 387.2337 L 366.7986 382.2756 L 361.5346 367.8519 L 359.3614 366.4353 L 357.7194 361.8635 L 355.9326 359.6098 L 356.2223 358.5795 L 354.194 353.2351 L 355.0633 347.633 L 356.3189 346.4096 L 359.3131 344.9286 L 364.722 345.4437 L 366.7503 342.868 L 366.6054 340.4212 L 365.2532 341.8378 L 364.2391 341.1939 L 366.5089 335.9782 L 364.6737 334.0464 L 364.2874 332.3078 L 367.9094 336.2357 L 371.0967 337.7811 L 372.449 331.2132 L 379.0652 336.7509 L 386.7439 335.9138 L 387.6614 333.6601 L 386.6473 331.5351 L 386.5507 328.8951 L 389.6415 328.3156 L 392.4908 330.3117 L 394.8572 329.9254 L 398.9138 331.2776 L 402.0046 329.1527 L 404.1778 325.3536 L 405.5301 326.9634 L 409.297 326.9634 L 409.8765 321.0393 L 409.3453 316.9827 L 411.9531 314.2782 L 413.3053 314.4714 L 414.8024 317.1759 L 413.0639 319.6871 L 412.7741 323.3574 L 414.7058 327.2853 L 416.0098 325.9975 L 415.9132 321.0393 L 420.4045 318.9788 L 420.7908 319.7515 L 419.4386 320.975 L 419.6318 322.1984 L 422.4328 324.3877 L 421.0323 326.8346 L 419.4386 326.899 L 418.9074 328.058 L 420.7908 329.7966 L 421.7084 328.8951 L 425.6202 329.9254 L 423.3504 327.2853 L 424.5577 326.899 L 424.9924 325.4824 L 423.3504 318.5925 L 425.9582 316.3388 L 425.1855 311.445 L 428.0349 311.0587 L 430.7876 313.0548 L 431.5603 311.2518 L 431.0774 309.1913 L 432.2847 309.5133 L 433.0091 308.483 L 433.492 304.6839 L 432.5745 300.756 L 434.7477 293.6086 L 435.7618 284.465 L 434.6028 281.7606 L 434.9408 279.4425 L 434.2164 278.1547 L 433.0574 278.6698 L 428.6144 276.6093 L 425.2338 277.5107 L 425.427 276.4161 L 422.3845 269.0755 L 423.8816 267.9808 L 421.2255 265.0832 L 420.8874 262.5075 L 422.3362 259.3524 L 423.447 258.9016 L 423.9299 254.5874 L 428.3246 245.8946 L 430.5944 245.2506 L 431.0291 243.7696 L 433.9267 244.9287 L 435.5687 243.9628 L 444.4547 243.7696 L 446.8211 241.3872 L 446.0001 239.5198 L 447.5455 237.6524 L 451.5538 236.2358 L 450.9743 234.8836 L 452.1816 234.6904 L 452.2782 235.5275 L 453.3407 234.1109 L 454.7412 235.0124 L 457.0593 234.6904 L 456.9144 232.308 L 458.5564 229.6679 L 459.0393 225.8688 L 458.1218 224.3234 L 459.0393 218.2706 L 457.832 217.3048 L 457.6871 215.1155 L 459.9569 213.892 L 461.3574 216.2101 L 463.3375 216.4033 L 463.2409 215.0511 L 462.3233 214.7291 L 462.8545 213.5701 L 462.4199 211.252 L 463.3375 211.0588 L 463.5789 209.3202 L 466.5731 208.0968 L 474.0586 212.7974 L 476.2801 212.733 L 476.3767 214.0208 L 476.6182 212.9261 L 477.5358 213.6988 L 477.1011 218.2706 L 473.2859 221.4902 L 473.7689 224.1303 L 478.1636 221.3614 L 479.0812 222.778 L 478.0187 225.0961 L 482.2202 223.5507 L 484.9247 223.8727 L 485.2627 222.6492 L 484.2486 219.4941 L 488.3052 218.5282 L 488.4984 217.3692 L 488.6916 218.3994 L 490.7199 218.7858 L 492.6517 220.9107 L 493.8107 218.9789 L 495.2112 219.3009 L 496.9015 221.8766 L 498.7366 219.816 L 503.3245 219.816 L 507.5744 216.4677 L 512.8867 222.6492 L 514.094 220.9107 L 515.736 215.2442 L 517.0882 214.9867 L 518.8268 212.9905 L 518.0541 211.252 L 519.0682 210.6724 L 520.0824 210.8656 L 521.8693 214.0208 L 519.7443 216.9184 L 520.0341 219.6229 L 519.0199 221.6834 L 521.0483 221.619 L 523.3181 223.7439 L 523.7044 223.1644 L 528.9201 224.9673 L 537.7578 222.6492 L 540.0276 218.9145 L 539.4964 214.2784 L 541.0901 214.0852 L 544.7121 215.9525 L 546.9819 218.1418 L 546.9819 219.8804 L 549.0102 220.3312 L 553.5981 223.8727 L 553.743 227.865 L 555.0952 231.4065 L 558.0411 232.308 L 558.1377 234.948 L 561.0353 237.3949 L 563.7881 235.0768 L 564.1261 231.8572 L 563.45 229.6679 L 564.7057 228.1869 L 564.3193 225.9332 L 568.0379 225.0317 L 569.4384 226.6415 L 569.5833 228.4445 L 570.8872 229.4747 L 571.7082 228.5089 L 574.5575 230.3118 L 574.0746 236.751 L 573.2536 238.8115 L 573.0122 249.5005 L 573.978 250.0156 L 573.3019 252.72 L 575.6683 252.4625 L 575.8132 254.9737 L 574.799 256.7123 L 573.7848 256.7767 L 573.8814 258.6441 L 573.0604 260.0607 L 573.7366 266.1135 L 570.5009 270.8784 L 569.6316 275.3858 L 570.7424 278.7342 L 567.4584 285.2377 L 566.5891 293.8018 L 567.9896 301.2068 L 567.1686 304.1044 L 567.0237 310.9943 L 567.7964 312.926 L 566.1545 319.7515 L 566.2028 335.1411 L 565.0437 341.9022 L 562.5324 342.6105 L 562.9671 350.595 L 560.649 356.2615 L 559.3451 364.9543 L 565.3335 376.7379 L 567.8447 385.6883 L 571.0804 391.8699 L 571.5633 403.074 L 575.3302 414.2137 L 576.2478 422.1983 L 576.5859 429.1525 L 575.5717 431.0843 L 574.461 438.2961 L 575.1854 446.989 L 577.1171 450.7237 L 581.1255 453.0418 L 586.148 448.47 L 587.307 442.8679 L 589.7217 440.8074 L 590.4461 441.2581 L 589.3837 447.2465 L 590.3495 450.4661 L 592.6193 452.2047 L 594.213 457.6779 L 597.497 460.1248 L 597.9799 461.5414 L 597.2072 464.761 L 598.1731 470.5562 L 595.4204 474.2909 L 595.9999 478.9271 L 595.3238 479.6998 L 593.5369 478.6696 L 591.7501 479.2491 L 590.3012 477.0598 L 586.2929 476.2871 L 585.0855 477.5105 L 584.2646 475.9651 L 581.2221 475.7719 L 580.2079 474.2909 L 580.9806 471.5221 L 580.4011 470.685 L 578.421 472.9387 L 577.0205 472.4236 L 576.2961 473.3251 L 575.3302 472.2304 L 572.5775 474.6773 L 569.2935 475.0636 L 568.3277 474.0334 L 565.3818 474.9992 L 563.8364 474.0334 L 559.828 475.45 L 559.1519 474.0978 L 556.6889 475.1924 L 554.7588 474.0999 L 554.7572 474.0978 L 554.7567 474.0987 Z M 542.1526 477.0598 L 542.5872 476.8666 L 542.8287 478.09 L 542.2009 477.5105 L 542.1526 477.0598 Z M 521.7727 467.723 L 521.9176 467.723 L 521.7727 467.9162 L 521.7727 467.723 Z M 522.4971 467.0147 L 522.6903 466.8859 L 522.7868 467.3367 L 522.4488 467.2079 L 522.4971 467.0147 Z M 522.7868 466.1776 L 523.0283 466.3064 L 522.9317 466.7571 L 522.6903 466.4996 L 522.7868 466.1776 Z" fill="#000000" fill-opacity="1" stroke="#000000" stroke-width="0" paint-order="fill" stroke-opacity="1" stroke-dasharray="" stroke-linecap="butt" stroke-linejoin="miter" stroke-miterlimit="10" clip-path="none"/>
<path d="M 385.1502 238.0388 L 386.2609 240.4857 L 386.0678 243.1901 L 383.8462 242.675 L 383.3633 245.4438 L 382.7355 245.3794 L 382.4457 242.0955 L 380.4657 242.0311 L 382.0111 241.4515 L 380.8038 238.232 L 378.534 237.91 L 378.7271 238.8759 L 377.6164 239.3266 L 377.8096 240.0349 L 376.9403 238.8759 L 377.0852 239.7774 L 376.2159 239.391 L 376.3125 235.27 L 373.7529 235.4631 L 373.1734 237.0085 L 372.449 236.0427 L 369.3582 236.1714 L 369.165 235.0124 L 368.5372 236.3646 L 364.8669 235.9139 L 365.1566 229.0884 L 364.8669 228.2513 L 362.1141 227.6074 L 361.5346 224.259 L 363.2732 219.4941 L 363.3215 216.4033 L 364.0942 215.7594 L 363.4664 215.373 L 364.722 207.5173 L 364.6254 199.082 L 365.1566 201.3357 L 365.7362 201.2069 L 365.2049 197.9229 L 368.5372 201.0781 L 369.2616 201.0781 L 369.986 199.3396 L 372.1592 199.9835 L 372.1109 201.3357 L 373.0768 200.4342 L 373.8495 203.5894 L 376.409 203.203 L 376.5539 204.4265 L 378.9686 206.809 L 383.7014 206.9377 L 384.8121 210.7368 L 385.6331 210.8656 L 385.778 212.1534 L 386.8887 212.0247 L 386.2609 215.9525 L 387.6131 219.6229 L 387.1302 220.9751 L 389.3517 221.1039 L 388.9654 231.9216 L 390.0278 232.5011 L 389.9312 233.9821 L 389.0137 234.1753 L 390.6073 234.1109 L 390.7522 239.1335 L 389.9795 240.8076 L 388.579 239.8418 L 388.241 241.0652 L 387.2751 241.0652 L 386.8405 239.713 L 388.0478 237.4593 L 385.1019 236.4934 L 385.1502 238.0388 Z" fill="#000000" fill-opacity="1" stroke="#000000" stroke-width="0" paint-order="fill" stroke-opacity="1" stroke-dasharray="" stroke-linecap="butt" stroke-linejoin="miter" stroke-miterlimit="10" clip-path="none"/>
<path d="M 265.2855 316.9183 L 241.0422 301.1424 L 209.5548 284.9801 L 210.2792 283.2416 L 209.2167 282.1469 L 205.1118 280.7947 L 202.4073 279.2493 L 201.8278 277.8971 L 208.4923 278.4122 L 210.086 281.825 L 210.907 276.2229 L 211.8729 274.4843 L 215.5915 274.2268 L 215.35 271.5223 L 216.8471 264.3749 L 215.7846 263.0871 L 215.5915 260.3826 L 216.7022 259.2236 L 216.1227 258.0645 L 217.9096 254.6518 L 219.5515 252.9132 L 219.8413 248.3414 L 223.8014 246.1521 L 223.5599 234.948 L 225.1536 231.7284 L 225.2019 228.8308 L 230.0312 227.4142 L 234.1362 223.8083 L 234.7157 220.6531 L 237.0821 218.2062 L 238.6758 212.6686 L 241.1871 208.7407 L 244.1813 205.9719 L 249.5418 204.684 L 249.3004 202.8167 L 250.4111 200.563 L 250.1697 196.9571 L 255.9649 186.6544 L 257.8 185.5598 L 258.0898 181.3743 L 259.0074 181.2456 L 258.7659 171.8444 L 260.1181 168.3673 L 259.104 165.4697 L 260.2147 158.6442 L 258.3313 156.2617 L 261.7118 150.9172 L 260.5045 147.0537 L 258.6693 144.8 L 256.3029 143.7698 L 256.3995 140.679 L 253.7917 138.9404 L 252.0531 134.755 L 254.0331 134.3686 L 254.5161 131.6642 L 258.0415 127.9295 L 258.283 125.9333 L 261.0357 125.7402 L 263.885 119.6874 L 264.9475 122.7781 L 265.7685 123.0357 L 268.2315 120.5888 L 272.3364 120.2669 L 273.1091 121.8123 L 273.7369 121.0396 L 275.0891 122.263 L 280.7395 121.7479 L 288.0801 119.623 L 290.1084 122.0698 L 294.2617 124.1304 L 298.3183 120.5888 L 297.9803 121.6835 L 307.7839 123.4221 L 311.261 125.7402 L 313.4342 123.744 L 314.545 120.7176 L 315.9938 120.4601 L 316.6699 118.142 L 318.4568 118.0132 L 322.3202 120.2669 L 323.6242 122.6494 L 322.5134 124.7099 L 322.8998 126.5129 L 322.1271 129.99 L 324.1071 131.4066 L 323.1895 134.6262 L 323.5276 138.1677 L 322.1271 141.6448 L 322.7549 143.5122 L 321.0646 146.2166 L 323.4793 149.3718 L 325.9423 157.9359 L 324.6866 159.8032 L 321.4993 158.2578 L 319.7124 158.5798 L 317.3943 160.6403 L 312.8064 161.735 L 310.3917 163.6023 L 307.5907 163.7955 L 307.1078 169.5907 L 303.8238 170.1702 L 301.8921 177.8972 L 299.6706 179.829 L 299.4774 182.5334 L 301.1677 185.9461 L 300.3467 188.715 L 301.554 190.3891 L 300.733 192.7716 L 302.375 193.8019 L 301.1677 195.9268 L 302.4716 196.8927 L 302.7131 198.6312 L 301.554 204.5553 L 305.0794 209.5134 L 305.7556 212.3466 L 307.639 213.6988 L 309.1361 218.7214 L 305.4175 223.3576 L 307.3492 225.9976 L 308.3151 230.3762 L 307.8322 235.3987 L 305.5141 240.3569 L 301.8921 242.9969 L 302.8579 245.4438 L 307.4941 248.8566 L 309.8605 253.6215 L 319.2778 262.3788 L 320.63 266.5642 L 326.8115 278.0903 L 327.5842 284.2718 L 327.3911 290.1315 L 325.8457 300.6917 L 325.2662 301.8507 L 323.4793 302.4946 L 318.8431 299.0175 L 314.9313 301.7863 L 307.0112 322.3916 L 304.6931 324.5165 L 303.5823 327.7361 L 298.8013 334.5615 L 296.3383 336.944 L 293.9719 337.2016 L 294.0685 338.3606 L 274.9925 322.5847 L 265.2855 316.9183 Z" fill="#000000" fill-opacity="1" stroke="#000000" stroke-width="0" paint-order="fill" stroke-opacity="1" stroke-dasharray="" stroke-linecap="butt" stroke-linejoin="miter" stroke-miterlimit="10" clip-path="none"/>
<path d="M 339.6576 237.0729 L 338.8366 237.0729 L 339.1264 239.1978 L 339.6576 239.1335 L 339.2713 240.3569 L 337.6293 239.2622 L 336.5186 241.3872 L 334.5868 241.3872 L 334.0073 233.6602 L 332.6068 230.4406 L 331.3511 230.5694 L 332.1721 224.7742 L 331.3028 223.6151 L 333.7175 221.4258 L 333.6209 219.6229 L 335.1663 217.9487 L 335.601 215.3086 L 335.3595 212.6042 L 333.4761 211.4451 L 334.5868 209.8354 L 333.4278 209.2558 L 332.1721 210.6724 L 330.0472 209.8997 L 328.2604 214.2784 L 327.6325 214.0208 L 327.1496 215.3086 L 325.7008 215.1155 L 324.4452 216.7896 L 322.4651 215.7594 L 319.1812 219.7516 L 318.6982 219.5585 L 319.4226 217.8199 L 317.7324 217.0472 L 316.0904 221.8766 L 315.0279 222.0053 L 314.7864 223.2932 L 313.2893 222.5849 L 311.2127 223.6795 L 307.8322 229.2172 L 307.3492 225.9976 L 305.4175 223.3576 L 309.1361 218.2706 L 307.639 213.6988 L 305.7556 212.3466 L 305.0794 209.5134 L 301.554 204.5553 L 302.7131 198.6312 L 302.4716 196.8927 L 301.1677 195.9268 L 302.375 193.8019 L 300.733 192.7716 L 301.554 190.3891 L 300.3467 188.715 L 301.1677 185.9461 L 299.4774 182.5334 L 299.6706 179.829 L 301.8921 177.8972 L 303.8238 170.1702 L 307.1078 169.5907 L 306.9146 166.3068 L 307.7356 163.7311 L 310.3917 163.6023 L 312.8064 161.735 L 317.3943 160.6403 L 319.7124 158.5798 L 326.7633 159.5457 L 327.2945 156.0041 L 332.6068 146.8605 L 335.7942 137.395 L 339.8508 132.4369 L 341.9757 126.1265 L 350.9583 119.8805 L 352.0691 117.82 L 355.7877 114.7292 L 358.3472 110.415 L 361.6795 107.5818 L 366.5572 105.3281 L 372.4007 98.6314 L 376.6988 95.0254 L 378.3891 91.4839 L 382.5906 89.1658 L 383.9428 87.4916 L 383.4599 85.8819 L 386.5507 83.8213 L 388.3858 80.9237 L 389.0137 77.5754 L 396.0162 65.7917 L 410.5526 53.2998 L 415.4785 63.4736 L 417.1205 71.3938 L 417.5069 84.3365 L 418.8591 93.802 L 421.3704 102.1085 L 421.4669 115.4375 L 432.5745 181.8251 L 432.6228 198.1805 L 440.0117 199.5971 L 441.4122 200.6918 L 442.5712 206.1007 L 445.7103 208.4831 L 447.8352 208.8695 L 448.8011 211.9603 L 450.8294 213.6344 L 451.4089 218.335 L 452.8095 216.9828 L 453.4856 217.4335 L 454.0168 215.695 L 454.6446 216.1457 L 454.0651 218.0775 L 455.7071 218.2706 L 455.9968 216.3389 L 457.832 215.5662 L 457.832 217.3048 L 459.0393 218.2706 L 458.1218 224.3234 L 459.0393 225.8688 L 458.5564 229.6679 L 456.9144 232.308 L 457.0593 234.6904 L 454.7412 235.0124 L 453.3407 234.1109 L 452.2782 235.5275 L 452.1816 234.6904 L 451.0226 234.8836 L 451.5538 236.2358 L 447.5455 237.6524 L 445.9035 239.5842 L 443.8752 239.0691 L 443.6337 237.6524 L 441.9917 238.1032 L 441.4605 234.3041 L 440.3497 233.467 L 439.0941 234.6904 L 437.4038 233.9177 L 432.8642 234.2397 L 429.0973 233.2094 L 429.5803 231.4709 L 427.5519 230.827 L 426.6343 235.5919 L 425.4753 235.0124 L 425.3304 235.9783 L 424.9924 234.8192 L 422.3845 234.2397 L 420.9357 237.5881 L 420.3079 237.3949 L 419.8733 233.7246 L 418.183 233.1451 L 417.8932 234.1109 L 417.362 232.2436 L 415.3337 233.3382 L 414.2229 232.8231 L 413.6917 235.3987 L 409.4418 234.948 L 409.8765 237.9744 L 408.0413 237.2017 L 406.1579 237.7168 L 405.7715 240.0993 L 404.8057 240.872 L 405.192 243.1901 L 402.729 243.7052 L 403.1154 239.1335 L 401.3285 238.1676 L 401.908 233.5958 L 400.4109 234.2397 L 398.5758 232.9519 L 399.4934 231.4709 L 398.4792 230.3118 L 398.9138 227.6074 L 398.3826 224.0659 L 399.3485 216.7896 L 398.286 215.5662 L 398.4309 210.7368 L 396.2577 210.9944 L 396.1128 208.8051 L 394.4708 208.8051 L 394.5191 211.1876 L 393.6981 211.3164 L 393.7464 212.8618 L 393.2152 212.8618 L 392.8289 210.7368 L 392.4425 212.3466 L 391.5732 211.7671 L 391.38 209.8354 L 391.042 211.1876 L 389.6898 210.7368 L 389.1102 211.5095 L 388.9654 214.7291 L 387.8546 210.4149 L 386.8405 210.7368 L 386.8887 212.0247 L 385.778 212.1534 L 383.7014 206.9377 L 378.9686 206.809 L 376.5539 204.4265 L 376.409 203.203 L 373.8495 203.5894 L 373.0768 200.4342 L 372.1109 201.3357 L 372.1592 199.9835 L 369.986 199.3396 L 369.2616 201.0781 L 368.5372 201.0781 L 365.2049 197.9229 L 365.7362 201.3357 L 365.1566 201.3357 L 364.6254 198.8888 L 363.563 200.4342 L 363.0317 206.9377 L 362.0176 208.4187 L 362.4039 210.0285 L 361.2449 213.892 L 358.9268 214.6647 L 358.3472 218.0775 L 356.1257 218.2062 L 355.1599 219.6229 L 355.5945 221.619 L 354.5321 222.6492 L 354.7252 223.9371 L 353.2764 222.5849 L 352.1174 223.2288 L 350.0408 222.3917 L 349.2198 224.259 L 347.7227 222.9068 L 346.8534 231.664 L 348.2056 232.3724 L 347.9158 234.8192 L 345.5012 231.2133 L 343.4245 233.789 L 343.0865 237.7812 L 341.686 235.7851 L 341.203 237.0729 L 339.6576 237.0729 Z" fill="#000000" fill-opacity="1" stroke="#000000" stroke-width="0" paint-order="fill" stroke-opacity="1" stroke-dasharray="" stroke-linecap="butt" stroke-linejoin="miter" stroke-miterlimit="10" clip-path="none"/>
<path d="M 354.194 353.2351 L 356.2223 358.5795 L 355.9326 359.6098 L 357.7194 361.8635 L 359.3131 366.3709 L 343.4728 359.7386 L 326.7633 354.0721 L 293.6339 337.4592 L 296.3383 336.944 L 298.8013 334.5615 L 303.5823 327.7361 L 304.6931 324.5165 L 307.0112 322.3916 L 312.6132 308.805 L 314.3035 302.6234 L 318.8431 299.0175 L 321.9339 301.9151 L 325.2662 301.8507 L 326.8115 294.4457 L 327.5842 284.2718 L 327.0047 278.9917 L 320.63 266.5642 L 319.2778 262.3788 L 309.8605 253.6215 L 307.4941 248.8566 L 302.8579 245.4438 L 301.8921 243.3833 L 302.375 242.1598 L 304.5965 241.3872 L 306.818 238.4895 L 308.0736 233.9821 L 307.8322 229.2172 L 309.7639 225.4181 L 313.1928 222.5849 L 314.7864 223.2932 L 315.0279 222.0053 L 317.008 220.7175 L 317.7324 217.0472 L 319.4226 217.8199 L 318.6982 219.5585 L 319.1812 219.7516 L 322.4651 215.7594 L 324.4452 216.7896 L 325.7008 215.1155 L 327.1496 215.3086 L 327.6325 214.0208 L 328.2604 214.2784 L 330.0472 209.8997 L 332.1721 210.6724 L 333.7658 209.3846 L 334.5868 209.8354 L 333.4761 211.4451 L 335.3595 212.6042 L 335.601 215.3086 L 335.1663 217.9487 L 333.6209 219.6229 L 333.7175 221.4258 L 331.3028 223.6151 L 332.1721 224.7742 L 331.3511 230.5694 L 332.6068 230.4406 L 334.0073 233.6602 L 334.5385 241.3228 L 336.5186 241.3872 L 337.6293 239.2622 L 339.2713 240.3569 L 339.6576 239.1335 L 339.1264 239.1978 L 338.8366 237.0729 L 341.203 237.0729 L 341.686 235.7851 L 343.0865 237.7812 L 343.4245 233.789 L 345.5012 231.2133 L 347.9158 234.8192 L 348.2056 232.3724 L 346.8534 231.664 L 347.7227 222.9068 L 349.2198 224.259 L 350.0408 222.3917 L 352.1174 223.2288 L 353.2764 222.5849 L 354.7252 223.9371 L 354.5321 222.6492 L 355.5945 221.619 L 355.1599 219.6229 L 356.1257 218.2062 L 358.3472 218.0775 L 358.9268 214.6647 L 361.0517 214.3428 L 362.4039 210.0285 L 362.0176 208.4187 L 363.0317 206.9377 L 363.563 200.4342 L 364.6254 198.8888 L 364.722 207.5173 L 363.4664 215.373 L 364.0942 215.7594 L 363.3215 216.4033 L 363.2732 219.4941 L 361.5346 224.259 L 362.1141 227.6074 L 364.8669 228.2513 L 365.1566 229.0884 L 364.8669 235.9139 L 368.5372 236.3646 L 369.165 235.0124 L 369.3582 236.1714 L 372.449 236.0427 L 373.1734 237.0085 L 373.7529 235.4631 L 376.3125 235.27 L 376.2159 239.391 L 377.0852 239.7774 L 376.9403 238.8759 L 377.8096 240.0349 L 377.6164 239.3266 L 378.7271 238.8759 L 378.534 237.91 L 381.3833 239.1335 L 382.0111 241.4515 L 380.4657 242.0311 L 382.4457 242.0955 L 382.3009 245.2506 L 383.3633 245.4438 L 383.8462 242.675 L 386.0678 243.1901 L 386.2609 240.4857 L 384.957 238.4251 L 385.1019 236.4934 L 388.0478 237.4593 L 386.8405 239.713 L 387.2751 241.0652 L 388.241 241.0652 L 388.579 239.8418 L 389.9795 240.8076 L 390.7522 239.1978 L 390.6073 234.1109 L 389.0137 234.1753 L 389.9312 233.9821 L 390.0278 232.5011 L 388.9654 231.9216 L 389.3517 221.1039 L 387.1302 220.9751 L 387.6131 219.6229 L 386.2609 215.9525 L 386.8405 210.7368 L 387.8546 210.4149 L 388.9654 214.7291 L 389.1102 211.5095 L 389.6898 210.7368 L 391.042 211.1876 L 391.38 209.8354 L 391.5732 211.7671 L 392.4425 212.3466 L 392.8289 210.7368 L 393.7464 212.8618 L 394.4708 208.8051 L 396.1128 208.8051 L 396.2577 210.9944 L 398.5758 211.3164 L 398.286 215.5662 L 399.3485 217.6911 L 398.3826 224.0659 L 398.9138 227.6074 L 398.4792 230.3118 L 399.4934 231.4709 L 398.5758 232.9519 L 400.4109 234.2397 L 401.908 233.5958 L 401.3285 238.1676 L 403.1154 239.1335 L 402.729 243.7052 L 405.192 243.1901 L 404.8057 240.872 L 405.7715 240.0993 L 406.1579 237.7168 L 408.0413 237.2017 L 409.8765 237.9744 L 409.4418 234.948 L 413.6917 235.3987 L 414.2229 232.8231 L 415.3337 233.3382 L 417.362 232.2436 L 417.8932 234.1109 L 418.183 233.1451 L 419.8733 233.7246 L 420.3079 237.3949 L 420.9357 237.5881 L 422.3845 234.2397 L 424.9924 234.8192 L 425.3304 235.9783 L 425.4753 235.0124 L 426.6343 235.5919 L 427.5519 230.827 L 429.5803 231.4709 L 429.0973 233.2094 L 432.8642 234.2397 L 437.4038 233.9177 L 439.0941 234.6904 L 440.1565 233.5314 L 441.1707 233.789 L 441.9917 238.1032 L 443.6337 237.6524 L 443.8752 239.0691 L 446.8694 240.2925 L 446.0967 242.7394 L 444.4547 243.7696 L 435.5687 243.9628 L 433.9267 244.9287 L 431.2705 243.7052 L 430.5944 245.2506 L 428.3246 245.8946 L 423.9299 254.5874 L 423.447 258.9016 L 422.3362 259.3524 L 420.8874 262.5075 L 421.2255 265.0832 L 423.8816 267.9808 L 422.3845 269.0755 L 425.427 276.4161 L 425.2338 277.5107 L 428.6144 276.6093 L 433.0574 278.6698 L 434.2164 278.1547 L 434.9408 279.4425 L 434.6028 281.7606 L 435.7618 284.465 L 434.7477 293.6086 L 432.5745 300.756 L 433.492 304.6839 L 433.0091 308.483 L 432.2847 309.5133 L 431.0774 309.1913 L 431.5603 311.2518 L 430.7876 313.0548 L 428.0349 311.0587 L 425.1855 311.445 L 425.9582 316.3388 L 423.3504 318.5925 L 424.9924 325.4824 L 424.5577 326.899 L 423.3504 327.2853 L 425.6202 329.9254 L 421.7084 328.8951 L 420.7908 329.7966 L 418.9074 328.058 L 419.4386 326.899 L 421.0323 326.8346 L 422.4328 324.3877 L 419.6318 322.1984 L 419.4386 320.975 L 420.7908 319.7515 L 420.4045 318.9788 L 415.9132 321.0393 L 416.0098 325.9975 L 414.7058 327.2853 L 412.7741 323.3574 L 413.0639 319.6871 L 414.8024 317.1759 L 413.3053 314.4714 L 411.9531 314.2782 L 409.3453 316.9827 L 409.8765 321.0393 L 409.297 326.9634 L 405.5301 326.9634 L 404.1778 325.3536 L 402.0046 329.1527 L 398.9138 331.2776 L 394.8572 329.9254 L 392.4908 330.3117 L 389.6415 328.3156 L 386.5507 328.8951 L 386.6473 331.5351 L 387.6614 333.6601 L 386.7439 335.9138 L 379.0652 336.7509 L 372.449 331.2132 L 371.0967 337.7811 L 367.9094 336.2357 L 364.2874 332.3078 L 364.6737 334.0464 L 366.5089 335.9782 L 364.2391 341.1939 L 365.2532 341.8378 L 366.6054 340.4212 L 366.7503 342.868 L 364.722 345.4437 L 359.3131 344.9286 L 356.3189 346.4096 L 355.0633 347.633 L 354.194 353.2351 Z" fill="rgba(244,246,247,1)" fill-opacity="1" stroke="#000000" stroke-width="0.5" paint-order="fill" stroke-opacity="1" stroke-dasharray="" stroke-linecap="butt" stroke-linejoin="miter" stroke-miterlimit="10" clip-path="none"/>
<path d="M 462.4682 434.6258 L 462.4682 434.497 L 462.5648 434.6258 L 462.4682 434.6258 Z M 474.3001 438.2317 L 474.6382 437.8454 L 474.8313 438.2317 L 474.6864 438.4249 L 474.3001 438.2317 Z M 463.3375 434.8834 L 463.3375 435.0766 L 463.1443 435.0122 L 463.1926 434.819 L 463.3375 434.8834 Z M 519.5512 464.1815 L 519.5512 464.5034 L 519.5029 464.5678 L 519.4063 464.2459 L 519.5512 464.1815 Z M 515.0116 462.5717 L 515.1082 462.7649 L 514.8184 462.7649 L 514.8667 462.5073 L 515.0116 462.5717 Z M 487.2428 443.3187 L 487.0013 443.8338 L 486.9047 443.8338 L 486.953 443.5762 L 487.2428 443.3187 Z M 477.9704 442.0308 L 477.8738 442.224 L 477.6807 442.1596 L 477.7772 442.0308 L 477.9704 442.0308 Z M 591.3154 478.9271 L 591.1705 479.3779 L 590.8325 479.3135 L 590.9774 478.9915 L 591.3154 478.9271 Z M 539.2549 476.4159 L 539.5447 476.6734 L 539.4964 476.8666 L 539.2549 476.7378 L 539.2549 476.4159 Z M 554.7588 474.0999 L 554.8538 474.2265 L 554.8055 474.4197 L 554.6606 474.2909 L 554.7567 474.0987 L 554.7588 474.0999 Z M 554.7567 474.0987 L 551.5698 472.2948 L 548.3824 472.3592 L 545.3882 476.7378 L 544.1326 475.0636 L 543.0218 476.8022 L 540.4623 475.3212 L 537.4681 477.5105 L 536.2125 476.9954 L 536.0193 475.5788 L 536.792 472.5524 L 538.1925 471.7797 L 538.1442 468.5601 L 537.2266 466.564 L 536.1159 466.4996 L 535.15 468.1094 L 533.7978 467.2723 L 532.9768 468.9464 L 532.5904 467.9806 L 528.7752 468.9464 L 527.6645 467.2723 L 525.2981 467.1435 L 524.9601 465.5981 L 523.1249 466.242 L 521.6761 464.6322 L 520.4688 465.2761 L 520.0824 463.7951 L 517.5711 461.9278 L 514.8667 462.1853 L 513.2247 459.6097 L 511.0032 459.9316 L 509.7476 458.9014 L 509.8925 457.9355 L 506.1256 456.8409 L 502.6001 452.7198 L 496.9981 450.4017 L 486.3252 441.902 L 484.152 442.1596 L 482.6549 444.5421 L 482.3651 443.1255 L 481.8339 443.7694 L 477.6324 441.5157 L 476.8597 439.0688 L 474.9279 437.3303 L 467.3458 436.4288 L 462.4199 434.2395 L 461.0194 435.0122 L 460.1984 431.4062 L 459.6671 431.0199 L 459.3774 433.4668 L 458.6047 433.4668 L 458.9427 435.5917 L 453.389 432.1789 L 452.5197 433.1448 L 451.6504 432.4365 L 450.0084 433.0804 L 450.1533 431.6638 L 449.2357 432.3077 L 448.6562 430.8911 L 447.7386 431.4706 L 447.2074 429.5389 L 444.9376 429.0238 L 444.6479 427.414 L 443.682 427.8003 L 443.7303 426.5125 L 442.9093 428.1867 L 438.1765 424.6451 L 435.134 424.2588 L 434.8925 423.4217 L 432.3813 423.7437 L 431.512 421.7475 L 429.9666 421.5544 L 429.6286 420.5885 L 427.6968 420.6529 L 425.3304 419.0431 L 423.3021 419.6226 L 421.6118 417.884 L 421.805 419.4294 L 421.3221 418.6567 L 420.8874 419.4294 L 419.1006 418.2704 L 418.521 416.725 L 412.5809 413.0547 L 408.5726 413.3766 L 407.993 412.0244 L 407.0755 413.1835 L 406.7374 412.3464 L 405.9164 412.8615 L 405.6749 411.6381 L 404.7574 411.8313 L 405.0471 408.6117 L 402.9222 405.8429 L 397.3202 404.1687 L 397.0304 402.8808 L 396.0645 402.6877 L 396.2094 401.5286 L 393.022 400.7559 L 392.5874 399.4037 L 390.1727 399.8544 L 389.2551 398.4378 L 386.937 398.7598 L 382.1077 394.8963 L 376.3125 394.4456 L 373.5114 390.067 L 372.9319 387.6845 L 370.7587 387.2337 L 366.7986 382.2756 L 361.5346 367.8519 L 359.3614 366.4353 L 357.7194 361.8635 L 355.9326 359.6098 L 356.2223 358.5795 L 354.194 353.2351 L 355.0633 347.633 L 356.3189 346.4096 L 359.3131 344.9286 L 364.722 345.4437 L 366.7503 342.868 L 366.6054 340.4212 L 365.2532 341.8378 L 364.2391 341.1939 L 366.5089 335.9782 L 364.6737 334.0464 L 364.2874 332.3078 L 367.9094 336.2357 L 371.0967 337.7811 L 372.449 331.2132 L 379.0652 336.7509 L 386.7439 335.9138 L 387.6614 333.6601 L 386.6473 331.5351 L 386.5507 328.8951 L 389.6415 328.3156 L 392.4908 330.3117 L 394.8572 329.9254 L 398.9138 331.2776 L 402.0046 329.1527 L 404.1778 325.3536 L 405.5301 326.9634 L 409.297 326.9634 L 409.8765 321.0393 L 409.3453 316.9827 L 411.9531 314.2782 L 413.3053 314.4714 L 414.8024 317.1759 L 413.0639 319.6871 L 412.7741 323.3574 L 414.7058 327.2853 L 416.0098 325.9975 L 415.9132 321.0393 L 420.4045 318.9788 L 420.7908 319.7515 L 419.4386 320.975 L 419.6318 322.1984 L 422.4328 324.3877 L 421.0323 326.8346 L 419.4386 326.899 L 418.9074 328.058 L 420.7908 329.7966 L 421.7084 328.8951 L 425.6202 329.9254 L 423.3504 327.2853 L 424.5577 326.899 L 424.9924 325.4824 L 423.3504 318.5925 L 425.9582 316.3388 L 425.1855 311.445 L 428.0349 311.0587 L 430.7876 313.0548 L 431.5603 311.2518 L 431.0774 309.1913 L 432.2847 309.5133 L 433.0091 308.483 L 433.492 304.6839 L 432.5745 300.756 L 434.7477 293.6086 L 435.7618 284.465 L 434.6028 281.7606 L 434.9408 279.4425 L 434.2164 278.1547 L 433.0574 278.6698 L 428.6144 276.6093 L 425.2338 277.5107 L 425.427 276.4161 L 422.3845 269.0755 L 423.8816 267.9808 L 421.2255 265.0832 L 420.8874 262.5075 L 422.3362 259.3524 L 423.447 258.9016 L 423.9299 254.5874 L 428.3246 245.8946 L 430.5944 245.2506 L 431.0291 243.7696 L 433.9267 244.9287 L 435.5687 243.9628 L 444.4547 243.7696 L 446.8211 241.3872 L 446.0001 239.5198 L 447.5455 237.6524 L 451.5538 236.2358 L 450.9743 234.8836 L 452.1816 234.6904 L 452.2782 235.5275 L 453.3407 234.1109 L 454.7412 235.0124 L 457.0593 234.6904 L 456.9144 232.308 L 458.5564 229.6679 L 459.0393 225.8688 L 458.1218 224.3234 L 459.0393 218.2706 L 457.832 217.3048 L 457.6871 215.1155 L 459.9569 213.892 L 461.3574 216.2101 L 463.3375 216.4033 L 463.2409 215.0511 L 462.3233 214.7291 L 462.8545 213.5701 L 462.4199 211.252 L 463.3375 211.0588 L 463.5789 209.3202 L 466.5731 208.0968 L 474.0586 212.7974 L 476.2801 212.733 L 476.3767 214.0208 L 476.6182 212.9261 L 477.5358 213.6988 L 477.1011 218.2706 L 473.2859 221.4902 L 473.7689 224.1303 L 478.1636 221.3614 L 479.0812 222.778 L 478.0187 225.0961 L 482.2202 223.5507 L 484.9247 223.8727 L 485.2627 222.6492 L 484.2486 219.4941 L 488.3052 218.5282 L 488.4984 217.3692 L 488.6916 218.3994 L 490.7199 218.7858 L 492.6517 220.9107 L 493.8107 218.9789 L 495.2112 219.3009 L 496.9015 221.8766 L 498.7366 219.816 L 503.3245 219.816 L 507.5744 216.4677 L 512.8867 222.6492 L 514.094 220.9107 L 515.736 215.2442 L 517.0882 214.9867 L 518.8268 212.9905 L 518.0541 211.252 L 519.0682 210.6724 L 520.0824 210.8656 L 521.8693 214.0208 L 519.7443 216.9184 L 520.0341 219.6229 L 519.0199 221.6834 L 521.0483 221.619 L 523.3181 223.7439 L 523.7044 223.1644 L 528.9201 224.9673 L 537.7578 222.6492 L 540.0276 218.9145 L 539.4964 214.2784 L 541.0901 214.0852 L 544.7121 215.9525 L 546.9819 218.1418 L 546.9819 219.8804 L 549.0102 220.3312 L 553.5981 223.8727 L 553.743 227.865 L 555.0952 231.4065 L 558.0411 232.308 L 558.1377 234.948 L 561.0353 237.3949 L 563.7881 235.0768 L 564.1261 231.8572 L 563.45 229.6679 L 564.7057 228.1869 L 564.3193 225.9332 L 568.0379 225.0317 L 569.4384 226.6415 L 569.5833 228.4445 L 570.8872 229.4747 L 571.7082 228.5089 L 574.5575 230.3118 L 574.0746 236.751 L 573.2536 238.8115 L 573.0122 249.5005 L 573.978 250.0156 L 573.3019 252.72 L 575.6683 252.4625 L 575.8132 254.9737 L 574.799 256.7123 L 573.7848 256.7767 L 573.8814 258.6441 L 573.0604 260.0607 L 573.7366 266.1135 L 570.5009 270.8784 L 569.6316 275.3858 L 570.7424 278.7342 L 567.4584 285.2377 L 566.5891 293.8018 L 567.9896 301.2068 L 567.1686 304.1044 L 567.0237 310.9943 L 567.7964 312.926 L 566.1545 319.7515 L 566.2028 335.1411 L 565.0437 341.9022 L 562.5324 342.6105 L 562.9671 350.595 L 560.649 356.2615 L 559.3451 364.9543 L 565.3335 376.7379 L 567.8447 385.6883 L 571.0804 391.8699 L 571.5633 403.074 L 575.3302 414.2137 L 576.2478 422.1983 L 576.5859 429.1525 L 575.5717 431.0843 L 574.461 438.2961 L 575.1854 446.989 L 577.1171 450.7237 L 581.1255 453.0418 L 586.148 448.47 L 587.307 442.8679 L 589.7217 440.8074 L 590.4461 441.2581 L 589.3837 447.2465 L 590.3495 450.4661 L 592.6193 452.2047 L 594.213 457.6779 L 597.497 460.1248 L 597.9799 461.5414 L 597.2072 464.761 L 598.1731 470.5562 L 595.4204 474.2909 L 595.9999 478.9271 L 595.3238 479.6998 L 593.5369 478.6696 L 591.7501 479.2491 L 590.3012 477.0598 L 586.2929 476.2871 L 585.0855 477.5105 L 584.2646 475.9651 L 581.2221 475.7719 L 580.2079 474.2909 L 580.9806 471.5221 L 580.4011 470.685 L 578.421 472.9387 L 577.0205 472.4236 L 576.2961 473.3251 L 575.3302 472.2304 L 572.5775 474.6773 L 569.2935 475.0636 L 568.3277 474.0334 L 565.3818 474.9992 L 563.8364 474.0334 L 559.828 475.45 L 559.1519 474.0978 L 556.6889 475.1924 L 554.7588 474.0999 L 554.7572 474.0978 L 554.7567 474.0987 Z M 542.1526 477.0598 L 542.5872 476.8666 L 542.8287 478.09 L 542.2009 477.5105 L 542.1526 477.0598 Z M 521.7727 467.723 L 521.9176 467.723 L 521.7727 467.9162 L 521.7727 467.723 Z M 522.4971 467.0147 L 522.6903 466.8859 L 522.7868 467.3367 L 522.4488 467.2079 L 522.4971 467.0147 Z M 522.7868 466.1776 L 523.0283 466.3064 L 522.9317 466.7571 L 522.6903 466.4996 L 522.7868 466.1776 Z" fill="rgba(244,246,247,1)" fill-opacity="1" stroke="#000000" stroke-width="0.5" paint-order="fill" stroke-opacity="1" stroke-dasharray="" stroke-linecap="butt" stroke-linejoin="miter" stroke-miterlimit="10" clip-path="none"/>
<path d="M 385.1502 238.0388 L 386.2609 240.4857 L 386.0678 243.1901 L 383.8462 242.675 L 383.3633 245.4438 L 382.7355 245.3794 L 382.4457 242.0955 L 380.4657 242.0311 L 382.0111 241.4515 L 380.8038 238.232 L 378.534 237.91 L 378.7271 238.8759 L 377.6164 239.3266 L 377.8096 240.0349 L 376.9403 238.8759 L 377.0852 239.7774 L 376.2159 239.391 L 376.3125 235.27 L 373.7529 235.4631 L 373.1734 237.0085 L 372.449 236.0427 L 369.3582 236.1714 L 369.165 235.0124 L 368.5372 236.3646 L 364.8669 235.9139 L 365.1566 229.0884 L 364.8669 228.2513 L 362.1141 227.6074 L 361.5346 224.259 L 363.2732 219.4941 L 363.3215 216.4033 L 364.0942 215.7594 L 363.4664 215.373 L 364.722 207.5173 L 364.6254 199.082 L 365.1566 201.3357 L 365.7362 201.2069 L 365.2049 197.9229 L 368.5372 201.0781 L 369.2616 201.0781 L 369.986 199.3396 L 372.1592 199.9835 L 372.1109 201.3357 L 373.0768 200.4342 L 373.8495 203.5894 L 376.409 203.203 L 376.5539 204.4265 L 378.9686 206.809 L 383.7014 206.9377 L 384.8121 210.7368 L 385.6331 210.8656 L 385.778 212.1534 L 386.8887 212.0247 L 386.2609 215.9525 L 387.6131 219.6229 L 387.1302 220.9751 L 389.3517 221.1039 L 388.9654 231.9216 L 390.0278 232.5011 L 389.9312 233.9821 L 389.0137 234.1753 L 390.6073 234.1109 L 390.7522 239.1335 L 389.9795 240.8076 L 388.579 239.8418 L 388.241 241.0652 L 387.2751 241.0652 L 386.8405 239.713 L 388.0478 237.4593 L 385.1019 236.4934 L 385.1502 238.0388 Z" fill="rgba(244,246,247,1)" fill-opacity="1" stroke="#000000" stroke-width="0.5" paint-order="fill" stroke-opacity="1" stroke-dasharray="" stroke-linecap="butt" stroke-linejoin="miter" stroke-miterlimit="10" clip-path="none"/>
<path d="M 265.2855 316.9183 L 241.0422 301.1424 L 209.5548 284.9801 L 210.2792 283.2416 L 209.2167 282.1469 L 205.1118 280.7947 L 202.4073 279.2493 L 201.8278 277.8971 L 208.4923 278.4122 L 210.086 281.825 L 210.907 276.2229 L 211.8729 274.4843 L 215.5915 274.2268 L 215.35 271.5223 L 216.8471 264.3749 L 215.7846 263.0871 L 215.5915 260.3826 L 216.7022 259.2236 L 216.1227 258.0645 L 217.9096 254.6518 L 219.5515 252.9132 L 219.8413 248.3414 L 223.8014 246.1521 L 223.5599 234.948 L 225.1536 231.7284 L 225.2019 228.8308 L 230.0312 227.4142 L 234.1362 223.8083 L 234.7157 220.6531 L 237.0821 218.2062 L 238.6758 212.6686 L 241.1871 208.7407 L 244.1813 205.9719 L 249.5418 204.684 L 249.3004 202.8167 L 250.4111 200.563 L 250.1697 196.9571 L 255.9649 186.6544 L 257.8 185.5598 L 258.0898 181.3743 L 259.0074 181.2456 L 258.7659 171.8444 L 260.1181 168.3673 L 259.104 165.4697 L 260.2147 158.6442 L 258.3313 156.2617 L 261.7118 150.9172 L 260.5045 147.0537 L 258.6693 144.8 L 256.3029 143.7698 L 256.3995 140.679 L 253.7917 138.9404 L 252.0531 134.755 L 254.0331 134.3686 L 254.5161 131.6642 L 258.0415 127.9295 L 258.283 125.9333 L 261.0357 125.7402 L 263.885 119.6874 L 264.9475 122.7781 L 265.7685 123.0357 L 268.2315 120.5888 L 272.3364 120.2669 L 273.1091 121.8123 L 273.7369 121.0396 L 275.0891 122.263 L 280.7395 121.7479 L 288.0801 119.623 L 290.1084 122.0698 L 294.2617 124.1304 L 298.3183 120.5888 L 297.9803 121.6835 L 307.7839 123.4221 L 311.261 125.7402 L 313.4342 123.744 L 314.545 120.7176 L 315.9938 120.4601 L 316.6699 118.142 L 318.4568 118.0132 L 322.3202 120.2669 L 323.6242 122.6494 L 322.5134 124.7099 L 322.8998 126.5129 L 322.1271 129.99 L 324.1071 131.4066 L 323.1895 134.6262 L 323.5276 138.1677 L 322.1271 141.6448 L 322.7549 143.5122 L 321.0646 146.2166 L 323.4793 149.3718 L 325.9423 157.9359 L 324.6866 159.8032 L 321.4993 158.2578 L 319.7124 158.5798 L 317.3943 160.6403 L 312.8064 161.735 L 310.3917 163.6023 L 307.5907 163.7955 L 307.1078 169.5907 L 303.8238 170.1702 L 301.8921 177.8972 L 299.6706 179.829 L 299.4774 182.5334 L 301.1677 185.9461 L 300.3467 188.715 L 301.554 190.3891 L 300.733 192.7716 L 302.375 193.8019 L 301.1677 195.9268 L 302.4716 196.8927 L 302.7131 198.6312 L 301.554 204.5553 L 305.0794 209.5134 L 305.7556 212.3466 L 307.639 213.6988 L 309.1361 218.7214 L 305.4175 223.3576 L 307.3492 225.9976 L 308.3151 230.3762 L 307.8322 235.3987 L 305.5141 240.3569 L 301.8921 242.9969 L 302.8579 245.4438 L 307.4941 248.8566 L 309.8605 253.6215 L 319.2778 262.3788 L 320.63 266.5642 L 326.8115 278.0903 L 327.5842 284.2718 L 327.3911 290.1315 L 325.8457 300.6917 L 325.2662 301.8507 L 323.4793 302.4946 L 318.8431 299.0175 L 314.9313 301.7863 L 307.0112 322.3916 L 304.6931 324.5165 L 303.5823 327.7361 L 298.8013 334.5615 L 296.3383 336.944 L 293.9719 337.2016 L 294.0685 338.3606 L 274.9925 322.5847 L 265.2855 316.9183 Z" fill="rgba(244,246,247,1)" fill-opacity="1" stroke="#000000" stroke-width="0.5" paint-order="fill" stroke-opacity="1" stroke-dasharray="" stroke-linecap="butt" stroke-linejoin="miter" stroke-miterlimit="10" clip-path="none"/>
<path d="M 339.6576 237.0729 L 338.8366 237.0729 L 339.1264 239.1978 L 339.6576 239.1335 L 339.2713 240.3569 L 337.6293 239.2622 L 336.5186 241.3872 L 334.5868 241.3872 L 334.0073 233.6602 L 332.6068 230.4406 L 331.3511 230.5694 L 332.1721 224.7742 L 331.3028 223.6151 L 333.7175 221.4258 L 333.6209 219.6229 L 335.1663 217.9487 L 335.601 215.3086 L 335.3595 212.6042 L 333.4761 211.4451 L 334.5868 209.8354 L 333.4278 209.2558 L 332.1721 210.6724 L 330.0472 209.8997 L 328.2604 214.2784 L 327.6325 214.0208 L 327.1496 215.3086 L 325.7008 215.1155 L 324.4452 216.7896 L 322.4651 215.7594 L 319.1812 219.7516 L 318.6982 219.5585 L 319.4226 217.8199 L 317.7324 217.0472 L 316.0904 221.8766 L 315.0279 222.0053 L 314.7864 223.2932 L 313.2893 222.5849 L 311.2127 223.6795 L 307.8322 229.2172 L 307.3492 225.9976 L 305.4175 223.3576 L 309.1361 218.2706 L 307.639 213.6988 L 305.7556 212.3466 L 305.0794 209.5134 L 301.554 204.5553 L 302.7131 198.6312 L 302.4716 196.8927 L 301.1677 195.9268 L 302.375 193.8019 L 300.733 192.7716 L 301.554 190.3891 L 300.3467 188.715 L 301.1677 185.9461 L 299.4774 182.5334 L 299.6706 179.829 L 301.8921 177.8972 L 303.8238 170.1702 L 307.1078 169.5907 L 306.9146 166.3068 L 307.7356 163.7311 L 310.3917 163.6023 L 312.8064 161.735 L 317.3943 160.6403 L 319.7124 158.5798 L 326.7633 159.5457 L 327.2945 156.0041 L 332.6068 146.8605 L 335.7942 137.395 L 339.8508 132.4369 L 341.9757 126.1265 L 350.9583 119.8805 L 352.0691 117.82 L 355.7877 114.7292 L 358.3472 110.415 L 361.6795 107.5818 L 366.5572 105.3281 L 372.4007 98.6314 L 376.6988 95.0254 L 378.3891 91.4839 L 382.5906 89.1658 L 383.9428 87.4916 L 383.4599 85.8819 L 386.5507 83.8213 L 388.3858 80.9237 L 389.0137 77.5754 L 396.0162 65.7917 L 410.5526 53.2998 L 415.4785 63.4736 L 417.1205 71.3938 L 417.5069 84.3365 L 418.8591 93.802 L 421.3704 102.1085 L 421.4669 115.4375 L 432.5745 181.8251 L 432.6228 198.1805 L 440.0117 199.5971 L 441.4122 200.6918 L 442.5712 206.1007 L 445.7103 208.4831 L 447.8352 208.8695 L 448.8011 211.9603 L 450.8294 213.6344 L 451.4089 218.335 L 452.8095 216.9828 L 453.4856 217.4335 L 454.0168 215.695 L 454.6446 216.1457 L 454.0651 218.0775 L 455.7071 218.2706 L 455.9968 216.3389 L 457.832 215.5662 L 457.832 217.3048 L 459.0393 218.2706 L 458.1218 224.3234 L 459.0393 225.8688 L 458.5564 229.6679 L 456.9144 232.308 L 457.0593 234.6904 L 454.7412 235.0124 L 453.3407 234.1109 L 452.2782 235.5275 L 452.1816 234.6904 L 451.0226 234.8836 L 451.5538 236.2358 L 447.5455 237.6524 L 445.9035 239.5842 L 443.8752 239.0691 L 443.6337 237.6524 L 441.9917 238.1032 L 441.4605 234.3041 L 440.3497 233.467 L 439.0941 234.6904 L 437.4038 233.9177 L 432.8642 234.2397 L 429.0973 233.2094 L 429.5803 231.4709 L 427.5519 230.827 L 426.6343 235.5919 L 425.4753 235.0124 L 425.3304 235.9783 L 424.9924 234.8192 L 422.3845 234.2397 L 420.9357 237.5881 L 420.3079 237.3949 L 419.8733 233.7246 L 418.183 233.1451 L 417.8932 234.1109 L 417.362 232.2436 L 415.3337 233.3382 L 414.2229 232.8231 L 413.6917 235.3987 L 409.4418 234.948 L 409.8765 237.9744 L 408.0413 237.2017 L 406.1579 237.7168 L 405.7715 240.0993 L 404.8057 240.872 L 405.192 243.1901 L 402.729 243.7052 L 403.1154 239.1335 L 401.3285 238.1676 L 401.908 233.5958 L 400.4109 234.2397 L 398.5758 232.9519 L 399.4934 231.4709 L 398.4792 230.3118 L 398.9138 227.6074 L 398.3826 224.0659 L 399.3485 216.7896 L 398.286 215.5662 L 398.4309 210.7368 L 396.2577 210.9944 L 396.1128 208.8051 L 394.4708 208.8051 L 394.5191 211.1876 L 393.6981 211.3164 L 393.7464 212.8618 L 393.2152 212.8618 L 392.8289 210.7368 L 392.4425 212.3466 L 391.5732 211.7671 L 391.38 209.8354 L 391.042 211.1876 L 389.6898 210.7368 L 389.1102 211.5095 L 388.9654 214.7291 L 387.8546 210.4149 L 386.8405 210.7368 L 386.8887 212.0247 L 385.778 212.1534 L 383.7014 206.9377 L 378.9686 206.809 L 376.5539 204.4265 L 376.409 203.203 L 373.8495 203.5894 L 373.0768 200.4342 L 372.1109 201.3357 L 372.1592 199.9835 L 369.986 199.3396 L 369.2616 201.0781 L 368.5372 201.0781 L 365.2049 197.9229 L 365.7362 201.3357 L 365.1566 201.3357 L 364.6254 198.8888 L 363.563 200.4342 L 363.0317 206.9377 L 362.0176 208.4187 L 362.4039 210.0285 L 361.2449 213.892 L 358.9268 214.6647 L 358.3472 218.0775 L 356.1257 218.2062 L 355.1599 219.6229 L 355.5945 221.619 L 354.5321 222.6492 L 354.7252 223.9371 L 353.2764 222.5849 L 352.1174 223.2288 L 350.0408 222.3917 L 349.2198 224.259 L 347.7227 222.9068 L 346.8534 231.664 L 348.2056 232.3724 L 347.9158 234.8192 L 345.5012 231.2133 L 343.4245 233.789 L 343.0865 237.7812 L 341.686 235.7851 L 341.203 237.0729 L 339.6576 237.0729 Z" fill="rgba(244,246,247,1)" fill-opacity="1" stroke="#000000" stroke-width="0.5" paint-order="fill" stroke-opacity="1" stroke-dasharray="" stroke-linecap="butt" stroke-linejoin="miter" stroke-miterlimit="10" clip-path="none"/><defs/>
<text transform="matrix(1 0 0 1 350.878 298.2538)" style="font-family:'Tahoma'; font-size:13px;" class="maplabels1">Bantul</text>
<text transform="matrix(1 0 0 1 441.9266 366.3708)" style="font-family:'Tahoma'; font-size:13px;" class="maplabels1">Gunung Kidul</text>
<text transform="matrix(1 0 0 1 344.6392 254.2021)" style="font-family:'Tahoma'; font-size:9px;" class="maplabels1">Kota Yogyakarta</text>
<text transform="matrix(1 0 0 1 234.8019 270.537)" style="font-family:'Tahoma'; font-size:13px;" class="maplabels1">Kulon Progo</text>
<text transform="matrix(1 0 0 1 358.7291 162.6278)" style="font-family:'Tahoma'; font-size:13px;" class="maplabels1">Sleman</text>
<text x="643" y="519.33333333333" font-size="11">Created with paintmaps.com</text>
</svg>