<?xml version="1.0" encoding="UTF-8"?>
<!DOCTYPE svg PUBLIC "-//W3C//DTD SVG 1.1//EN" "http://www.w3.org/Graphics/SVG/1.1/DTD/svg11.dtd">
<!-- Creator: CorelDRAW 2020 (64-Bit) -->
<svg xmlns="http://www.w3.org/2000/svg" xml:space="preserve" width="75.1842mm" height="17.0708mm" version="1.1" style="shape-rendering:geometricPrecision; text-rendering:geometricPrecision; image-rendering:optimizeQuality; fill-rule:evenodd; clip-rule:evenodd"
viewBox="0 0 97.63 22.17"
 xmlns:xlink="http://www.w3.org/1999/xlink"
 xmlns:xodm="http://www.corel.com/coreldraw/odm/2003">
 <defs>
  <style type="text/css">
   <![CDATA[
    .fil0 {fill:#0032B2}
    .fil1 {fill:#5CEA00}
   ]]>
  </style>
 </defs>
 <g id="Layer_x0020_1">
  <metadata id="CorelCorpID_0Corel-Layer"/>
  <circle class="fil0" cx="87.83" cy="11.34" r="7.98"/>
  <g id="_2430003741056">
   <path class="fil0" d="M3.64 12.71c0,0.12 1.51,0.77 1.74,0.86 0.46,0.17 1.49,0.53 2.02,0.57l0 -10.97c0.11,0.12 1.13,2.64 1.29,3.02 1.3,3.03 2.58,6.08 3.87,9.11 0.96,2.25 1.44,3.91 3.31,5.34 1.48,1.13 2.71,1.45 4.15,1.52l2.99 0c-0.03,-0.11 -0.58,-1.37 -0.67,-1.58 -1.58,-3.69 -3.14,-7.41 -4.72,-11.1 -0.45,-1.05 -0.89,-2.11 -1.35,-3.17 -0.46,-1.06 -0.85,-2.16 -1.45,-3.07 -1.04,-1.56 -3.2,-3.24 -5.8,-3.24l-5.39 0 0 12.71z"/>
   <path class="fil1" d="M91.85 6.04l1.9 0 0 9.47 -1.63 -0 -0.11 -0.6c-0.19,0.09 -0.41,0.31 -0.7,0.45 -0.84,0.41 -2.1,0.36 -2.91,0.03 -1.11,-0.45 -1.6,-1.5 -1.6,-3.02 0,-1.51 0.57,-2.58 1.47,-3.15 0.48,-0.31 1.1,-0.52 1.8,-0.5 0.91,0.03 1.13,0.19 1.79,0.5l0 -3.17zm-8.42 2.81l0.02 0 2.71 0 0 6.65 -1.9 0 0 -5.25 -1 -0 0.17 -1.41zm0.67 -2.7l2.07 -0 -0 1.49 -2.02 0 -0.05 -0.01 0 -1.48zm-3.94 7.62c0.04,-0.07 0.1,-0.39 0.18,-0.55 0.62,-1.23 2.41,-1.33 3.09,0.02 0.42,0.83 0.03,1.68 -0.45,2.07 -0.7,0.57 -1.38,0.48 -2.13,0.06 0.3,0.72 1.34,1.94 1.91,2.41 0.8,0.66 1.6,1.25 2.68,1.64 2.6,0.96 4.83,0.75 7.15,-0.28 1.84,-0.82 3.41,-2.55 4.26,-4.39 0.52,-1.14 0.78,-2.41 0.77,-3.68 -0.01,-1.2 -0.25,-2.4 -0.71,-3.49 -0.83,-1.93 -2.34,-3.54 -4.18,-4.46 -2.08,-1.04 -4.68,-1.34 -7.14,-0.41 -2.08,0.79 -3.63,2.17 -4.68,3.98 -0.51,0.88 -0.93,2.01 -1.08,3.25 -0.08,0.65 -0.11,1.34 -0.04,2.03 0.07,0.72 0.22,1.19 0.37,1.8z"/>
   <path class="fil1" d="M9.92 19.16c0.62,0 2.91,-0.1 3.24,-0.26l-1.43 -3.31c-0.01,-0.01 -1.6,0.09 -1.86,0.08 -2.8,-0.03 -5.37,-0.75 -7.63,-2.27 -0.4,-0.27 -0.78,-0.52 -1.16,-0.82 -0.13,-0.1 -1.05,-0.88 -1.09,-0.89l0 3.26 0 0.03 0 0.49c0.02,0.1 0.09,0.14 0.27,0.3 0.8,0.66 1.64,1.23 2.59,1.75 1.83,1 4.22,1.64 7.06,1.64z"/>
   <path class="fil0" d="M69.92 9.7l-0.06 -0.65 -1.76 0 0 6.64 1.88 0 0 -4.66c0,-0.05 0.74,-0.71 1.36,-0.71l0.19 0c0.75,0 0.91,0.56 0.91,1.31l0 4.07 1.77 0 0 -4.23c0,-0.59 -0.23,-0.51 0.26,-0.84 0.4,-0.26 0.68,-0.3 1.17,-0.3 0.73,0 1.06,0.43 1.06,1.17l0 4.21 1.87 0 0 -4.54c0,-1.41 -0.75,-2.24 -2.17,-2.24 -1.25,0 -1.73,0.28 -2.53,0.81 -0.33,-0.62 -0.9,-0.81 -1.75,-0.81 -0.99,0 -1.61,0.39 -2.2,0.78z"/>
   <path class="fil0" d="M55.29 12.57c0,-1.22 0.44,-2.25 1.64,-2.25 0.39,0 0.59,0.01 0.95,0.16 0.09,0.04 0.53,0.29 0.53,0.36l0 2.98c0,0.1 -0.48,0.39 -0.59,0.44 -0.26,0.11 -0.53,0.18 -0.89,0.18 -1.2,0 -1.64,-0.67 -1.64,-1.87zm3.12 -3.16c-0.64,-0.34 -0.99,-0.49 -1.91,-0.49 -1.9,0 -3.13,1.59 -3.13,3.53l0 0.27c0,1.49 0.59,2.44 1.66,2.87 0.5,0.2 1.3,0.31 1.98,0.2 0.83,-0.13 1.02,-0.34 1.57,-0.71l0.1 0.6 1.64 0 0 -9.43 -1.91 0 0 3.15z"/>
   <path class="fil0" d="M41.59 12.81l1.98 0 0 1.03c0,0.12 -0.57,0.47 -0.71,0.53 -0.39,0.17 -0.68,0.21 -1.16,0.21 -0.65,0 -1.09,-0.21 -1.13,-0.83 -0.04,-0.64 0.41,-0.94 1.02,-0.94zm-1.92 -3.44l0 1.26c0,0.07 0.35,-0.06 0.43,-0.08 0.71,-0.19 1.23,-0.22 1.98,-0.22 0.85,0 1.5,0.17 1.5,1.03l0 0.25 -1.84 0c-1.05,0 -1.87,0.22 -2.36,0.79 -0.49,0.57 -0.72,1.63 -0.24,2.4 0.39,0.63 1.12,1.02 2.11,1.04 0.46,0.01 1.05,-0.07 1.4,-0.18 0.5,-0.16 0.65,-0.31 1.02,-0.56l0.09 0.59 1.66 0 0 -3.93c0,-1.06 -0.17,-1.69 -0.76,-2.18 -0.5,-0.42 -1.35,-0.66 -2.28,-0.66 -0.6,0 -1.01,0.02 -1.57,0.12 -0.17,0.03 -1.12,0.23 -1.12,0.33z"/>
   <path class="fil0" d="M26.17 13.72c0,-0.61 0.4,-0.91 1,-0.91l2.01 0 0 1.02c0,0.15 -0.56,0.47 -0.71,0.54 -0.35,0.17 -0.74,0.22 -1.19,0.22 -0.62,0 -1.11,-0.25 -1.11,-0.87zm-0.89 -3.04c1.13,-0.26 1.08,-0.34 2.4,-0.34 0.89,0 1.5,0.18 1.5,1.09l0 0.19 -1.84 0c-1.57,0 -2.86,0.59 -2.86,2.13l0 0.07c0,1.14 0.83,1.81 1.79,1.98 0.75,0.13 1.73,0.03 2.4,-0.3 0.11,-0.05 0.58,-0.37 0.58,-0.37l0.1 0.58 1.65 0 0 -4.32c0,-1.75 -1.3,-2.46 -3.05,-2.46 -0.89,0 -1.71,0.09 -2.48,0.35 -0.24,0.08 -0.19,0.04 -0.19,0.35 0,0.35 0,0.71 0,1.06z"/>
   <path class="fil0" d="M62.49 13.7c0,-0.6 0.41,-0.89 1,-0.89l2.01 0 0 1.02c0,0.14 -0.56,0.47 -0.7,0.54 -0.4,0.18 -0.7,0.22 -1.2,0.22 -0.63,0 -1.11,-0.25 -1.11,-0.88zm-0.89 -3.02c1.13,-0.26 1.08,-0.34 2.41,-0.34 0.85,0 1.5,0.17 1.5,1.03l0 0.25 -1.84 0c-1.59,0 -2.86,0.6 -2.86,2.16 0,1.16 0.79,1.84 1.78,2.01 0.55,0.1 1.21,0.06 1.72,-0.05 0.26,-0.06 0.49,-0.14 0.7,-0.25 0.11,-0.05 0.58,-0.37 0.58,-0.37l0.09 0.58 1.65 0 0 -4.34c0,-1.72 -1.32,-2.43 -3.05,-2.43 -0.83,0 -1.36,0.06 -2.07,0.24 -0.14,0.03 -0.27,0.08 -0.4,0.12 -0.24,0.08 -0.19,0.03 -0.19,0.35 0,0.35 0,0.71 0,1.06z"/>
   <path class="fil0" d="M47.99 9.67c0,-0.1 -0.03,-0.62 -0.1,-0.62l-1.69 0c-0.03,0 -0.04,0.01 -0.04,0.04l0 6.6 1.91 0 0 -4.69c0,-0.11 0.86,-0.69 1.51,-0.69l0.23 0c0.74,0 1.13,0.33 1.13,1.07l0 4.3 1.91 0 0 -4.22c0,-1.7 -0.76,-2.56 -2.46,-2.56 -0.6,0 -0.91,0.07 -1.41,0.24 -0.16,0.06 -0.39,0.15 -0.52,0.23 -0.07,0.04 -0.45,0.28 -0.47,0.28z"/>
   <path class="fil0" d="M33.6 9.67l-0.07 -0.62 -1.76 0 0 6.64 1.9 0 0 -4.67c0,-0.11 0.53,-0.41 0.65,-0.47 0.39,-0.2 0.65,-0.23 1.1,-0.23 0.8,0 1.14,0.36 1.14,1.15l0 4.22 1.9 0 0 -4.47c0,-1.52 -0.9,-2.31 -2.43,-2.31 -0.58,0 -0.94,0.06 -1.42,0.24 -0.19,0.07 -0.36,0.14 -0.53,0.23 -0.09,0.05 -0.44,0.28 -0.47,0.28z"/>
   <path class="fil1" d="M88.71 12.49c0,1.16 0.52,1.76 1.68,1.76 0.31,0 0.62,-0.08 0.87,-0.19 0.15,-0.06 0.59,-0.33 0.59,-0.45l0 -2.94c0,-0.18 -0.68,-0.47 -0.93,-0.52 -0.42,-0.09 -0.9,-0.04 -1.26,0.12 -0.63,0.29 -0.94,1.07 -0.94,1.97l0 0.26z"/>
   <path class="fil0" d="M3.68 22.17l3.68 0c0.07,0 0.04,-0.8 0.04,-0.92 0,-0.32 0,-0.64 0,-0.96 -0.64,0 -2.22,-0.44 -2.89,-0.66 -0.26,-0.09 -0.65,-0.27 -0.88,-0.32 0,0.48 0,0.96 0,1.44 0,0.17 -0.03,1.42 0.04,1.42z"/>
  </g>
 </g>
</svg>
